<svg xmlns="http://www.w3.org/2000/svg" width="247.907" height="60.643" viewBox="0 0 247.907 60.643">
  <g id="Grupo_60" data-name="Grupo 60" transform="translate(-8.982 -296.057)">
    <g id="Grupo_36" data-name="Grupo 36" transform="translate(-333 232)">
      <path id="Trazado_15" data-name="Trazado 15" d="M393.365,90.6l-3.413-5.908,3.413-5.908h6.822l3.411,5.908L400.188,90.6Z" fill="#46a70e"/>
      <path id="Trazado_16" data-name="Trazado 16" d="M367.833,77.22l-2.772-4.793,2.772-4.794h5.532l2.769,4.794-2.769,4.793Z" fill="#46a70e"/>
      <path id="Trazado_17" data-name="Trazado 17" d="M401.418,69.107l-1.456-2.525,1.456-2.524h2.916l1.459,2.524-1.459,2.525Z" fill="#46a70e"/>
      <path id="Trazado_18" data-name="Trazado 18" d="M388.058,72.4l-2.34-4.052,2.34-4.054h4.678l2.342,4.054L392.735,72.4Z" fill="#46a70e"/>
    </g>
    <g id="Grupo_37" data-name="Grupo 37" transform="translate(-333 232)">
      <path id="Trazado_19" data-name="Trazado 19" d="M377.506,91.594a1.375,1.375,0,1,0-1.376,1.374A1.377,1.377,0,0,0,377.506,91.594Z" fill="#313131"/>
      <path id="Trazado_20" data-name="Trazado 20" d="M381.518,105.731l5.011,8.229,3.326.914,8.395-14.539-3-5.2h-4.907l-6.074-10.52,2.453-4.25-2.537-4.4h-4.719l-3.35,5.8H365.08l-3.347-5.8h-5.684l-4.871,8.439,6.4,9.931c.056,0,.108-.016.164-.016a3.436,3.436,0,1,1-3.436,3.435,3.405,3.405,0,0,1,.8-2.178l-5.475-8.49-7.646,13.242,7.381,12.786,15.5-10.2L366.8,95.87l.457-.285,5.5-3.414a3.327,3.327,0,0,1-.06-.577,3.442,3.442,0,1,1,1.53,2.856,6.057,6.057,0,0,1-.593.412l-4.466,2.77-1.937,7.046L350.741,115.5l3.827,6.63,13.113-8.288c0-.053-.017-.1-.017-.157a3.436,3.436,0,1,1,3.436,3.435,3.4,3.4,0,0,1-2.185-.806l-12.971,8.2.105.183h28.135l4.251-7.366-3.669-1.008-.286-.455s-5.55-9.1-5.655-9.26a3.424,3.424,0,1,1,2.28-1.472A6.077,6.077,0,0,1,381.518,105.731Z" fill="#313131"/>
      <path id="Trazado_21" data-name="Trazado 21" d="M372.474,113.689a1.374,1.374,0,1,0-1.374,1.373A1.376,1.376,0,0,0,372.474,113.689Z" fill="#313131"/>
      <path id="Trazado_22" data-name="Trazado 22" d="M359.112,97.761a1.375,1.375,0,1,0-1.374,1.375A1.376,1.376,0,0,0,359.112,97.761Z" fill="#313131"/>
      <path id="Trazado_23" data-name="Trazado 23" d="M376.874,103.234a1.376,1.376,0,1,0,1.374-1.374A1.376,1.376,0,0,0,376.874,103.234Z" fill="#313131"/>
    </g>
    <g id="Grupo_56" data-name="Grupo 56" transform="translate(0 -2)">
      <g id="Grupo_40" data-name="Grupo 40" transform="translate(-222 191)">
        <text id="DECODERWEB" transform="translate(358.889 141.481)" fill="#313131" font-size="21" font-family="OCRAExtended, OCR A"><tspan x="-63.42" y="0">DECODER</tspan><tspan y="0" fill="#46a70e">WEB</tspan></text>
      </g>
      <g id="Grupo_42" data-name="Grupo 42" transform="translate(-212 209)">
        <text id="Desarrolladores_Web" data-name="Desarrolladores Web" transform="translate(376.889 141.481)" fill="#5b5b5b" font-size="16" font-family="OCRAbyBT-Regular, OCR-A BT"><tspan x="-91.488" y="0">Desarrolladores Web</tspan></text>
      </g>
    </g>
  </g>
</svg>
